PathFileType	4	(X/Y/Z)	s02c0302.trc
DataRate	CameraRate	NumFrames	NumMarkers	Units	OrigDataRate	OrigDataStartFrame	OrigNumFrames
200	200	4	51	mm	200	750	2000
Frame#	Time	racr			lacr			c7			jug			rlel			rdr			llel			ldr			s2			lic			ric			lasi			rasi			rpsi			lpsi			rgt			lgt			rth1			rth2			rth3			rth4			rlfc			rmfc			rsh1			rsh2			rsh3			rsh4			rlmal			rmmal			rcal			rtoe			rmt5			rmt1			lth1			lth2			lth4			lth3			llfc			lmfc			lsh1			lsh2			lsh3			lsh4			llmal			lmmal			lcal			ltoe			lmt5			SBIKE			LBIKE			RBIKE			
		X1	Y1	Z1	X2	Y2	Z2	X3	Y3	Z3	X4	Y4	Z4	X5	Y5	Z5	X6	Y6	Z6	X7	Y7	Z7	X8	Y8	Z8	X9	Y9	Z9	X10	Y10	Z10	X11	Y11	Z11	X12	Y12	Z12	X13	Y13	Z13	X14	Y14	Z14	X15	Y15	Z15	X16	Y16	Z16	X17	Y17	Z17	X18	Y18	Z18	X19	Y19	Z19	X20	Y20	Z20	X21	Y21	Z21	X22	Y22	Z22	X23	Y23	Z23	X24	Y24	Z24	X25	Y25	Z25	X26	Y26	Z26	X27	Y27	Z27	X28	Y28	Z28	X29	Y29	Z29	X30	Y30	Z30	X31	Y31	Z31	X32	Y32	Z32	X33	Y33	Z33	X34	Y34	Z34	X35	Y35	Z35	X36	Y36	Z36	X37	Y37	Z37	X38	Y38	Z38	X39	Y39	Z39	X40	Y40	Z40	X41	Y41	Z41	X42	Y42	Z42	X43	Y43	Z43	X44	Y44	Z44	X45	Y45	Z45	X46	Y46	Z46	X47	Y47	Z47	X48	Y48	Z48	X49	Y49	Z49	X50	Y50	Z50	X51	Y51	Z51	
750	3.7500	624.528108	1273.107065	-191.518318	556.239672	1274.009734	-523.063210	577.058000	1309.774574	-361.757507	522.986898	1178.404585	-342.223332	609.796828	1014.045566	-81.466464	731.518088	842.553802	-129.964746	497.588775	986.471641	-549.877867	701.387462	873.491321	-520.681756	45.266294	1163.674443	-282.798884	171.023622	1151.128147	-436.440920	183.235649	1131.528152	-150.585936	212.027150	1112.159088	-414.357302	226.197748	1098.197789	-182.227284	72.524093	1188.750404	-238.155148	72.848621	1202.881101	-322.352436	150.028245	1047.963782	-116.810664	113.554301	1071.797205	-470.579138	235.416351	994.877612	-129.190916	311.244982	950.676878	-139.456612	360.456573	882.737405	-120.932823	330.844746	971.012692	-163.998620	422.717909	754.587405	-156.417385	397.977638	744.354684	-264.222227	355.792844	662.795914	-141.948014	299.641265	595.903217	-160.359333	222.004960	558.879936	-151.374553	306.697505	590.317292	-198.796122	117.705089	493.933391	-151.443801	138.340802	505.615423	-234.322302	31.041849	502.525325	-197.342819	238.672016	304.085460	-189.310444	147.272105	366.135528	-135.591164	178.065232	356.263663	-241.543646	219.018341	978.297373	-502.203137	287.757376	925.402359	-505.353270	315.535003	946.122323	-493.429658	320.883808	842.880796	-510.113667	383.791648	762.077120	-493.934174	401.541566	733.012423	-392.865887	379.399081	654.977673	-515.770587	394.456304	570.946222	-500.897489	361.911726	486.140699	-498.791168	414.274790	572.639733	-464.920826	335.128200	380.646667	-483.156717	352.346432	379.308178	-404.996472	273.827635	327.645463	-445.456064	563.341473	307.002674	-448.856526	455.865683	289.198571	-510.882325	-128.183166	869.664024	-315.419245	32.942254	81.979106	-515.544761	32.472765	82.183858	-115.583669	
751	3.7550	624.518167	1273.672329	-191.266216	556.963935	1274.080249	-523.553992	577.550827	1310.409819	-361.901503	522.917145	1179.141192	-342.262138	610.312155	1014.369878	-81.569796	731.652217	842.520433	-129.927022	497.678688	986.571965	-549.901391	701.424045	873.481253	-520.760071	46.075113	1162.604522	-283.910498	172.073646	1149.587923	-437.420046	183.629141	1131.477567	-151.234596	213.355073	1110.812993	-415.131999	226.893167	1098.325045	-182.606205	72.986983	1187.844786	-239.267230	73.588998	1201.625447	-323.285805	151.003866	1048.340584	-116.513973	114.661210	1069.876901	-470.923951	236.461926	995.905553	-128.770895	312.830426	952.525622	-138.907720	362.890773	885.299954	-119.841111	332.345134	973.123569	-163.351222	426.465449	757.610319	-155.149814	402.307385	747.241763	-262.951231	359.204367	666.144633	-140.880501	302.518545	599.896193	-159.566935	224.512593	563.439750	-150.888696	309.621100	594.104648	-198.009925	119.843528	499.597497	-151.249335	140.684556	511.212555	-234.040676	33.249165	508.657956	-197.267566	239.694974	309.222617	-189.384200	148.713061	371.642217	-135.569103	179.842312	361.694586	-241.166883	219.395717	975.532783	-502.624987	287.515517	921.839532	-505.734583	315.525812	942.343129	-493.960595	319.711066	838.963595	-510.438259	381.718713	757.688280	-494.289646	398.275413	727.527321	-394.294257	377.421167	650.573800	-516.228209	393.038264	566.711518	-501.350396	360.881597	481.777750	-499.263127	412.803348	568.326970	-465.423063	334.758525	376.141384	-483.628650	352.034894	374.698351	-405.410143	273.319427	323.815919	-445.911518	562.674404	300.454437	-448.687383	455.201821	283.593044	-510.896206	-128.250996	869.638027	-315.461595	32.928025	81.960496	-515.543252	33.024912	81.880597	-115.467647	
752	3.7600	624.484367	1274.264668	-190.959774	557.776940	1274.229851	-523.917734	578.117954	1311.054039	-361.895114	522.861270	1179.933015	-342.224783	610.809566	1014.740089	-81.623176	731.820738	842.465090	-129.825155	497.819620	986.758137	-550.014008	701.471023	873.456254	-520.842809	46.855587	1161.497227	-284.995899	173.138827	1148.083082	-438.301092	184.035459	1131.535654	-151.936977	214.632349	1109.499574	-415.753887	227.537484	1098.460112	-183.071009	73.438743	1187.053856	-240.414678	74.402569	1200.349228	-324.525867	151.876148	1048.525726	-116.747114	115.765216	1068.013135	-471.323669	237.493175	996.897540	-128.630038	314.034224	954.360182	-138.768872	365.278764	887.948961	-118.774165	333.482690	975.026716	-163.107104	430.306904	760.777733	-153.821564	406.433589	749.747400	-261.183990	362.701585	669.614460	-139.797096	305.516626	603.756354	-158.789008	227.182612	568.172482	-150.288027	312.689447	598.029062	-197.062517	122.053375	505.153765	-151.053602	143.175603	516.685982	-233.793373	35.587674	514.632879	-197.134441	240.996654	314.206724	-189.390564	150.317693	377.067924	-135.538448	181.385061	366.991579	-241.092313	219.753654	972.828179	-503.119659	287.225464	918.348568	-506.191457	315.518601	938.481300	-494.440790	318.455060	835.098933	-510.828438	379.569923	753.298091	-494.610085	396.331643	723.665215	-394.821152	375.371209	646.333090	-516.548225	391.427656	562.344007	-501.674133	359.684663	477.328246	-499.696639	411.216964	564.265091	-465.864843	334.437097	371.601148	-484.016091	351.440575	370.182192	-405.919289	272.833668	319.976437	-446.351464	561.964447	293.900114	-448.394683	454.439318	278.002105	-510.867262	-128.239707	869.656929	-315.492409	32.926658	81.971455	-515.555358	33.032940	81.861282	-115.451226	
753	3.7650	624.350757	1275.095896	-190.239382	558.691068	1274.325231	-524.369949	578.709906	1311.740693	-361.836970	522.759270	1180.844084	-342.017942	611.398295	1015.117232	-81.729524	731.999542	842.494843	-129.707398	498.036558	986.927866	-550.222395	701.516297	873.425668	-520.972210	47.713108	1160.484284	-286.210836	174.283602	1146.613733	-439.271426	184.421680	1131.636517	-152.633240	216.001806	1108.217052	-416.460101	228.256271	1098.762459	-183.516401	73.922980	1186.356580	-241.630502	75.130984	1199.145612	-325.612171	152.658010	1048.877809	-117.043474	116.901382	1066.213057	-471.755750	238.507316	998.088421	-128.577219	315.602890	956.288621	-138.243453	367.655207	890.746898	-117.642532	334.958237	977.233004	-162.379632	434.117650	764.156276	-152.320814	411.415338	753.835899	-261.427113	366.171270	673.226810	-138.227059	308.489414	607.745658	-157.883330	229.744047	572.881679	-149.705812	315.757045	602.000773	-196.258705	124.375501	510.685976	-150.930464	145.881577	522.185906	-233.587843	38.083912	520.620617	-197.083748	242.428808	319.188515	-189.442940	152.016771	382.469756	-135.555475	182.870273	372.315168	-241.398245	220.073176	970.126367	-503.573201	286.957732	914.890871	-506.690905	315.451402	934.725410	-495.001645	317.163011	831.336482	-511.192825	377.363654	748.867748	-494.965459	394.125857	719.531322	-395.354828	373.215391	641.996799	-516.961139	389.667693	558.084533	-502.147262	358.311547	472.898798	-499.975791	409.474453	560.097876	-466.190958	334.080562	366.811656	-483.877086	350.992795	365.593621	-406.030980	272.028172	316.246177	-446.691418	560.974443	287.316591	-448.083418	453.431009	272.568285	-510.804411	-128.212203	869.644182	-315.434164	32.934266	81.958209	-515.553788	33.024561	81.871093	-115.455744	
